HIERARCHY
ROOT hip
{
	OFFSET 0.000000 0.000000 0.000000
	CHANNELS 6 Xposition Yposition Zposition Xrotation Zrotation Yrotation 
	JOINT abdomen
	{
		OFFSET 0.000000 3.422050 0.000000
		CHANNELS 3 Xrotation Zrotation Yrotation 
		JOINT chest
		{
			OFFSET 0.000000 8.486693 -0.684411
			CHANNELS 3 Xrotation Zrotation Yrotation 
			JOINT neck
			{
				OFFSET 0.000000 10.266162 -0.273764
				CHANNELS 3 Xrotation Zrotation Yrotation 
				JOINT head
				{
					OFFSET 0.000000 3.148285 0.000000
					CHANNELS 3 Xrotation Zrotation Yrotation 
					End Site
					{
						OFFSET 0.000000 3.148289 0.000000
					}
				}
			}
			JOINT lCollar
			{
				OFFSET 3.422053 6.707223 -0.821293
				CHANNELS 3 Yrotation Zrotation Xrotation 
				JOINT lShldr
				{
					OFFSET 3.285171 0.000000 0.000000
					CHANNELS 3 Zrotation Yrotation Xrotation 
					JOINT lForeArm
					{
						OFFSET 10.129278 0.000000 0.000000
						CHANNELS 3 Yrotation Zrotation Xrotation 
						JOINT lHand
						{
							OFFSET 8.486692 0.000000 0.000000
							CHANNELS 3 Zrotation Yrotation Xrotation 
							End Site
							{
								OFFSET 4.106464 0.000000 0.000000
							}
						}
					}
				}
			}
			JOINT rCollar
			{
				OFFSET -3.558935 6.707223 -0.821293
				CHANNELS 3 Yrotation Zrotation Xrotation 
				JOINT rShldr
				{
					OFFSET -3.148289 0.000000 0.000000
					CHANNELS 3 Zrotation Yrotation Xrotation 
					JOINT rForeArm
					{
						OFFSET -10.266159 0.000000 0.000000
						CHANNELS 3 Yrotation Zrotation Xrotation 
						JOINT rHand
						{
							OFFSET -8.349810 0.000000 0.000000
							CHANNELS 3 Zrotation Yrotation Xrotation 
							End Site
							{
								OFFSET -4.106464 0.000000 0.000000
							}
						}
					}
				}
			}
		}
	}
	JOINT lThigh
	{
		OFFSET 5.338403 -1.642589 1.368821
		CHANNELS 3 Xrotation Zrotation Yrotation 
		JOINT lShin
		{
			OFFSET -2.053232 -20.121670 0.000000
			CHANNELS 3 Xrotation Zrotation Yrotation 
			JOINT lFoot
			{
				OFFSET 0.000000 -19.300380 -1.231939
				CHANNELS 3 Xrotation Yrotation Zrotation 
				End Site
				{
					OFFSET 0.000000 -2.463878 4.653993
				}
			}
		}
	}
	JOINT rThigh
	{
		OFFSET -5.338403 -1.642589 1.368821
		CHANNELS 3 Xrotation Zrotation Yrotation 
		JOINT rShin
		{
			OFFSET 2.053232 -20.121670 0.000000
			CHANNELS 3 Xrotation Zrotation Yrotation 
			JOINT rFoot
			{
				OFFSET 0.000000 -19.300380 -1.231939
				CHANNELS 3 Xrotation Yrotation Zrotation 
				End Site
				{
					OFFSET 0.000000 -2.463878 4.653993
				}
			}
		}
	}
}
MOTION
Frames: 11
Frame Time: 0.033264
0.000000 43.528500 0.000000 0.000000 0.000000 0.000000 0.000000 0.000000 0.000000 0.000000 0.000000 0.000000 0.000000 0.000000 0.000000 0.000000 0.000000 0.000000 0.000000 0.000000 0.000000 0.000000 0.000000 0.000000 0.000000 0.000000 0.000000 0.000000 0.000000 0.000000 0.000000 0.000000 0.000000 0.000000 0.000000 0.000000 0.000000 0.000000 0.000000 0.000000 0.000000 0.000000 0.000000 0.000000 0.000000 0.000000 0.000000 0.000000 0.000000 0.000000 0.000000 0.000000 0.000000 0.000000 0.000000 0.000000 0.000000 0.000000 0.000000 0.000000 
0.820026 14.028782 6.088578 23.999125 0.000000 0.000000 54.307423 0.556981 -0.246873 32.614223 0.987782 -1.862820 -48.002895 0.000000 0.000000 -24.002691 0.000000 0.000000 -22.042328 36.993893 9.335914 17.607561 -67.195671 -72.004799 -65.035789 10.502692 -45.563190 -51.002815 0.000000 0.000000 8.653975 -18.508291 0.426655 -57.713459 65.893593 -51.429325 46.381966 -0.271197 -56.005112 53.056717 51.030109 15.000856 -15.626916 67.893768 9.884825 88.561310 1.561414 -0.521675 0.000000 0.000000 0.000000 -15.623585 -67.911110 -9.889959 88.561363 -1.561484 0.516733 0.000000 0.000000 0.000000 
0.820026 14.074172 6.262462 23.721336 0.000000 0.000000 54.543755 0.562739 -0.246972 32.879852 1.059182 -1.858473 -48.002895 0.000000 0.000000 -24.201548 0.222792 0.032880 -21.958933 37.345047 11.441925 20.167168 -66.576439 -74.232414 -65.153648 10.388659 -45.541100 -50.230846 -0.991704 1.094429 8.934618 -18.451738 0.706833 -57.713459 65.893593 -51.429329 46.381969 -0.271199 -56.005112 53.056717 51.030109 15.000856 -14.088788 67.639587 10.924423 87.922974 1.509317 -0.535927 0.132317 0.202289 -0.057064 -14.077606 -67.677895 -10.957634 87.924011 -1.508729 0.531095 0.131886 -0.178800 0.037996 
0.820026 14.119562 6.436346 23.443518 0.000000 0.000000 54.780113 0.568497 -0.247046 33.145508 1.130568 -1.853793 -48.002895 0.000000 0.000000 -24.400393 0.445825 0.065005 -21.891140 37.700523 13.570011 22.605606 -65.918724 -76.337624 -65.271408 10.274573 -45.519249 -49.475037 -2.001399 2.179616 9.214908 -18.393869 0.986659 -57.713459 65.893593 -51.429329 46.381966 -0.271197 -56.005119 53.056721 51.030113 15.000859 -12.578610 67.374840 11.935282 87.284370 1.457040 -0.549604 0.264847 0.404461 -0.114600 -12.557745 -67.433807 -11.998492 87.286392 -1.455791 0.544877 0.263900 -0.357524 0.076405 
0.820026 14.164952 6.610229 23.165674 0.000000 0.000000 55.016472 0.574256 -0.247097 33.411205 1.201937 -1.848783 -48.002895 0.000000 0.000000 -24.599237 0.669092 0.096374 -21.839617 38.059681 15.719240 24.925276 -65.225441 -78.322762 -65.389091 10.160442 -45.497643 -48.735710 -3.028278 3.255465 9.494836 -18.334698 1.266121 -57.713482 65.893608 -51.429344 46.381969 -0.271199 -56.005112 53.056725 51.030113 15.000861 -11.096652 67.099915 12.917149 86.645493 1.404590 -0.562703 0.397594 0.606512 -0.172610 -11.064463 -67.179222 -13.012079 86.648499 -1.402680 0.558073 0.396045 -0.536168 0.115230 
0.820026 14.210342 6.784113 22.887810 0.000000 0.000000 55.252865 0.580016 -0.247124 33.676937 1.273287 -1.843441 -48.002895 0.000000 0.000000 -24.798067 0.892587 0.126986 -21.804932 38.421734 17.888575 27.129807 -64.499542 -80.191490 -65.506691 10.046265 -45.476288 -48.013149 -4.071505 4.321912 9.774386 -18.274225 1.545208 -57.713451 65.893593 -51.429321 46.381958 -0.271197 -56.005108 53.056717 51.030109 15.000857 -9.643060 66.815216 13.869912 86.006393 1.351977 -0.575220 0.530558 0.808440 -0.231093 -9.598076 -66.914482 -13.998100 86.010391 -1.349405 0.570681 0.528321 -0.714731 0.154470 
0.820026 14.255733 6.957997 22.609930 0.000000 0.000000 55.489246 0.585775 -0.247127 33.942688 1.344615 -1.837767 -48.002895 0.000000 0.000000 -24.996904 1.116307 0.156840 -21.787663 38.785957 20.076960 29.223501 -63.743740 -81.948120 -65.624207 9.932044 -45.455170 -47.307625 -5.130223 5.378933 10.053553 -18.212463 1.823906 -57.713459 65.893585 -51.429325 46.381966 -0.271197 -56.005112 53.056713 51.030102 15.000853 -8.217873 66.521118 14.793541 85.367142 1.299212 -0.587153 0.663742 1.010241 -0.290051 -8.158811 -66.639977 -14.956346 85.372131 -1.295976 0.582699 0.660731 -0.893209 0.194125 
0.820026 14.301123 7.131881 22.332041 0.000000 0.000000 55.725651 0.591535 -0.247106 34.208466 1.415919 -1.831762 -48.002895 0.000000 0.000000 -25.195749 1.340244 0.185935 -21.788267 39.151539 22.283230 31.211260 -62.960590 -83.597519 -65.741638 9.817776 -45.434299 -46.619370 -6.203554 6.426534 10.332316 -18.149405 2.102203 -57.713451 65.893593 -51.429325 46.381966 -0.271197 -56.005112 53.056717 51.030109 15.000856 -6.821023 66.218002 15.688111 84.727737 1.246303 -0.598499 0.797148 1.211912 -0.349484 -6.746773 -66.356071 -15.886724 84.733719 -1.242404 0.594123 0.793275 -1.071600 0.234196 
0.820026 14.346513 7.305764 22.054138 0.000000 0.000000 55.962051 0.597295 -0.247062 34.474277 1.487198 -1.825426 -48.002895 0.000000 0.000000 -25.394592 1.564393 0.214269 -21.807186 39.517666 24.506182 33.098366 -62.152557 -85.145004 -65.859001 9.703466 -45.413685 -45.948612 -7.290599 7.464756 10.610669 -18.085060 2.380088 -57.713459 65.893593 -51.429325 46.381966 -0.271197 -56.005112 53.056721 51.030109 15.000859 -5.452372 65.906227 16.553789 84.088226 1.193262 -0.609255 0.930777 1.413449 -0.409393 -5.361976 -66.063110 -16.789234 84.095215 -1.188697 0.604951 0.925955 -1.249903 0.274683 
0.820026 14.391903 7.479648 21.776236 0.000000 0.000000 56.198467 0.603055 -0.246994 34.740116 1.558448 -1.818759 -48.002895 0.000000 0.000000 -25.593447 1.788749 0.241841 -21.844774 39.883522 26.744551 34.890205 -61.321869 -86.595924 -65.976257 9.589114 -45.393299 -45.295555 -8.390446 8.493676 10.888592 -18.019428 2.657545 -57.713459 65.893593 -51.429329 46.381966 -0.271199 -56.005119 53.056717 51.030109 15.000856 -4.111693 65.586205 17.390825 83.448685 1.140096 -0.619419 1.064632 1.614850 -0.469779 -4.004347 -65.761490 -17.663971 83.456673 -1.134867 0.615181 1.058773 -1.428114 0.315587 
0.820026 14.437293 7.653532 21.498323 0.000000 0.000000 56.434879 0.608815 -0.246902 35.005959 1.629667 -1.811761 -48.002895 0.000000 0.000000 -25.792305 2.013305 0.268650 -21.901299 40.248222 28.996994 36.592182 -60.470631 -87.955711 -66.093460 9.474721 -45.373165 -44.660347 -9.502171 9.513393 11.166081 -17.952518 2.934567 -57.713459 65.893593 -51.429329 46.381966 -0.271197 -56.005112 53.056721 51.030117 15.000859 -2.798689 65.258255 18.199518 82.809105 1.086818 -0.628990 1.198715 1.816111 -0.530643 -2.673732 -65.451538 -18.511093 82.818069 -1.080922 0.624811 1.191730 -1.606230 0.356907 
